<svg id="Layer_1" data-name="Layer 1" xmlns="http://www.w3.org/2000/svg" xmlns:xlink="http://www.w3.org/1999/xlink" viewBox="0 0 103.14 78.03"><defs><style>.cls-1{fill:none;}.cls-2{clip-path:url(#clip-path);}.cls-3{fill:#231f20;}.cls-4{fill:#e6e7e8;}.cls-5{fill:#58595b;}.cls-6{fill:url(#linear-gradient);}.cls-7{fill:#e0e1e2;}.cls-8{fill:#d5d7d8;}.cls-9{fill:#ebebec;}</style><clipPath id="clip-path" transform="translate(-63.86 -69.7)"><path class="cls-1" d="M157,147.73H73.87a10,10,0,0,1-10-10V81.06a10,10,0,0,1,10-10H157a9.76,9.76,0,0,1,10,10v56.66A10,10,0,0,1,157,147.73Z"/></clipPath><linearGradient id="linear-gradient" x1="4.7" y1="16.39" x2="98.69" y2="16.39" gradientUnits="userSpaceOnUse"><stop offset="0" stop-color="#f2f2f2"/><stop offset="1" stop-color="#e6e6e6"/></linearGradient></defs><g class="cls-2"><path class="cls-3" d="M157,147.73H73.87a10,10,0,0,1-10-10V81.06a10,10,0,0,1,10-10H157a9.86,9.86,0,0,1,10,10v56.66A10,10,0,0,1,157,147.73Z" transform="translate(-63.86 -69.7)"/><polygon class="cls-4" points="39.18 57.34 55.28 78.03 91.15 78.03 91.15 20.59 51.57 48.52 39.18 57.34"/><path class="cls-5" d="M64.48,77.77s-.51,3.94,1.69,5.85l49.2,34.66.06,0,49.26-34.7a4.73,4.73,0,0,0,1.4-2.3,7.13,7.13,0,0,0-1.64-7.1c-2.68-2.53-4.21-3.26-9.39-3.06H73.18a7.76,7.76,0,0,0-3.6.85A10,10,0,0,0,64.48,77.77Z" transform="translate(-63.86 -69.7)"/><polyline class="cls-6" points="4.7 0 51.57 32.79 98.69 0"/><polygon class="cls-7" points="11.72 20.51 11.72 78.03 39.29 57.34 11.72 20.51"/><polygon class="cls-8" points="11.72 20.45 11.72 23.4 39.29 57.34 51.57 48.63 11.72 20.45"/><polygon class="cls-9" points="39.29 57.34 55.56 78.03 11.64 78.03 39.29 57.34"/></g></svg>