<?xml version="1.0" encoding="UTF-8" standalone="no"?>
<!DOCTYPE svg PUBLIC "-//W3C//DTD SVG 1.1//EN" "http://www.w3.org/Graphics/SVG/1.1/DTD/svg11.dtd">
<svg version="1.1" xmlns="http://www.w3.org/2000/svg" xmlns:xlink="http://www.w3.org/1999/xlink" preserveAspectRatio="xMidYMid meet" viewBox="0 0 640 640" width="640" height="640"><defs><path d="M101.95 611.4L197.06 611.4L197.06 516.43L101.95 516.43L101.95 611.4ZM22.45 436.94L22.45 516.43L101.95 516.43L101.95 436.94L22.45 436.94ZM421.98 15.86C202.47 -52.67 0 110.58 0 319.89C12.36 319.89 111.27 319.89 123.63 319.89C123.63 188.52 253.96 86.96 392.17 137.03C443.4 155.48 484.44 196.52 502.9 247.62C553.35 385.7 451.66 515.78 320.42 516.04C320.42 516.07 320.42 516.2 320.42 516.43L320.04 516.43C320.04 590.6 320.04 631.81 320.04 640.05C529.86 640.05 692.72 437.71 624.07 217.94C594.39 122.19 517.73 45.92 421.98 15.86ZM320.42 516.04L320.42 393.06L197.05 393.06L197.05 516.43L320.03 516.43L320.03 516.04L320.42 516.04Z" id="a21H3niZhB"></path></defs><g><g><g><use xlink:href="#a21H3niZhB" opacity="1" fill="#0080ff" fill-opacity="1"></use><g><use xlink:href="#a21H3niZhB" opacity="1" fill-opacity="0" stroke="#000000" stroke-width="1" stroke-opacity="0"></use></g></g></g></g></svg>