<?xml version="1.0" encoding="UTF-8" standalone="no"?>
<!DOCTYPE svg PUBLIC "-//W3C//DTD SVG 1.1//EN" "http://www.w3.org/Graphics/SVG/1.1/DTD/svg11.dtd">
<svg version="1.1" xmlns="http://www.w3.org/2000/svg" xmlns:xlink="http://www.w3.org/1999/xlink" preserveAspectRatio="xMidYMid meet" viewBox="0 0 640 640" width="640" height="640"><defs><path d="M70.86 179.08L70.86 553.03C53.22 553.03 43.43 553.03 41.47 553.03C18.66 553.03 0 534.38 0 511.57C0 485.84 0 357.19 0 125.64L70.86 179.08Z" id="b1fWv0K6h"></path><path d="M569.15 179.08L569.15 553.03C586.78 553.03 596.57 553.03 598.53 553.03C621.34 553.03 640 534.38 640 511.57C640 485.84 640 357.19 640 125.64L569.15 179.08Z" id="c6jMEDFzSo"></path><path d="M381.78 553.03L72.17 553.03L70.86 553.03L256.43 417.84L70.86 553.03L256.43 417.84L381.78 553.03Z" id="a1dKkstFLM"></path><path d="M70.86 190L319.99 362.44L569.15 190L569.15 192.26L319.99 371.5L70.86 192.26L70.86 190Z" id="aSapbplT2"></path><path d="M319.99 371.5L71.64 192.81L70.86 192.26L70.86 217.7L71.82 218.72L256.43 417.84L319.99 371.5Z" id="a1FjTZNCCr"></path><path d="M70.86 553.03L256.43 417.84L70.86 217.7L70.86 553.03Z" id="a1u6yeZOEB"></path><path d="M381.78 553.03L569.15 553.03L569.15 192.26L319.99 371.5L256.43 417.84L381.78 553.03Z" id="dcKpRn9Ij"></path><path d="M34.48 86.98L607.1 87.07L319.99 276.28L34.48 86.98Z" id="b6skvLSM7D"></path><path d="M319.99 276.28C478.66 166.45 566.81 105.43 584.44 93.23C600.46 82.13 622.64 86.18 633.71 102.19C638.21 108.7 640.23 116.2 639.96 123.6C639.96 123.6 639.96 123.61 639.96 123.62C639.97 134.21 639.98 140.1 639.98 141.27C634.97 144.97 629.75 148.03 624.75 151.49C604.44 165.55 502.85 235.87 319.99 362.44C137.13 235.87 35.55 165.55 15.23 151.49C10.24 148.03 5.02 144.97 0 141.27C0 140.1 0.01 134.21 0.02 123.62C0.02 123.61 0.02 123.6 0.02 123.6C-0.24 116.22 1.75 108.7 6.27 102.19C17.37 86.18 39.54 82.15 55.55 93.23C90.81 117.64 178.95 178.65 319.99 276.28Z" id="b1huKTD8e5"></path><path d="M70.86 190L0 141.27L70.86 217.7L70.86 190Z" id="bCOm3MvtC"></path><path d="M569.15 190L640 141.27L569.15 217.7L569.15 190Z" id="aowJwEQ78"></path></defs><g><g><g><use xlink:href="#b1fWv0K6h" opacity="1" fill="#d53b29" fill-opacity="1"></use><g><use xlink:href="#b1fWv0K6h" opacity="1" fill-opacity="0" stroke="#000000" stroke-width="1" stroke-opacity="0"></use></g></g><g><use xlink:href="#c6jMEDFzSo" opacity="1" fill="#d53b29" fill-opacity="1"></use><g><use xlink:href="#c6jMEDFzSo" opacity="1" fill-opacity="0" stroke="#000000" stroke-width="1" stroke-opacity="0"></use></g></g><g><use xlink:href="#a1dKkstFLM" opacity="1" fill="#eeefef" fill-opacity="1"></use><g><use xlink:href="#a1dKkstFLM" opacity="1" fill-opacity="0" stroke="#000000" stroke-width="1" stroke-opacity="0"></use></g></g><g><use xlink:href="#aSapbplT2" opacity="1" fill="#b4a4a3" fill-opacity="1"></use><g><use xlink:href="#aSapbplT2" opacity="1" fill-opacity="0" stroke="#000000" stroke-width="1" stroke-opacity="0"></use></g></g><g><use xlink:href="#a1FjTZNCCr" opacity="1" fill="#cccfcf" fill-opacity="1"></use><g><use xlink:href="#a1FjTZNCCr" opacity="1" fill-opacity="0" stroke="#000000" stroke-width="1" stroke-opacity="0"></use></g></g><g><use xlink:href="#a1u6yeZOEB" opacity="1" fill="#e0e2e3" fill-opacity="1"></use><g><use xlink:href="#a1u6yeZOEB" opacity="1" fill-opacity="0" stroke="#000000" stroke-width="1" stroke-opacity="0"></use></g></g><g><use xlink:href="#dcKpRn9Ij" opacity="1" fill="#e4e4e4" fill-opacity="1"></use><g><use xlink:href="#dcKpRn9Ij" opacity="1" fill-opacity="0" stroke="#000000" stroke-width="1" stroke-opacity="0"></use></g></g><g><use xlink:href="#b6skvLSM7D" opacity="1" fill="#f3f3f3" fill-opacity="1"></use><g><use xlink:href="#b6skvLSM7D" opacity="1" fill-opacity="0" stroke="#000000" stroke-width="1" stroke-opacity="0"></use></g></g><g><use xlink:href="#b1huKTD8e5" opacity="1" fill="#e04c3b" fill-opacity="1"></use><g><use xlink:href="#b1huKTD8e5" opacity="1" fill-opacity="0" stroke="#000000" stroke-width="1" stroke-opacity="0"></use></g></g><g><use xlink:href="#bCOm3MvtC" opacity="1" fill="#ba3a28" fill-opacity="1"></use><g><use xlink:href="#bCOm3MvtC" opacity="1" fill-opacity="0" stroke="#000000" stroke-width="1" stroke-opacity="0"></use></g></g><g><use xlink:href="#aowJwEQ78" opacity="1" fill="#ba3a28" fill-opacity="1"></use><g><use xlink:href="#aowJwEQ78" opacity="1" fill-opacity="0" stroke="#000000" stroke-width="1" stroke-opacity="0"></use></g></g></g></g></svg>