<svg xmlns="http://www.w3.org/2000/svg" xmlns:xlink="http://www.w3.org/1999/xlink" viewBox="0 0 345.97 365"><defs><style>.cls-1{mask:url(#mask);}.cls-13,.cls-16,.cls-17,.cls-2,.cls-4,.cls-9{mix-blend-mode:multiply;}.cls-2{fill:url(#radial-gradient);}.cls-3{mask:url(#mask-2);}.cls-4{fill:url(#radial-gradient-2);}.cls-5{fill:none;}.cls-6{isolation:isolate;}.cls-7{fill:#0f9d58;}.cls-15,.cls-8{fill:#fff;}.cls-8{fill-opacity:0.32;}.cls-9{opacity:0.24;}.cls-10{fill:#263238;}.cls-11{clip-path:url(#clip-path);}.cls-12{mask:url(#mask-3);}.cls-13{fill:url(#radial-gradient-3);}.cls-14{fill:#f1f1f1;}.cls-15{fill-opacity:0.48;}.cls-16{opacity:0.16;}.cls-17,.cls-19{opacity:0.08;}.cls-18{mask:url(#mask-4);}.cls-19{fill:url(#radial-gradient-4);}.cls-20{filter:url(#luminosity-noclip-4);}.cls-21{filter:url(#luminosity-noclip-3);}.cls-22{filter:url(#luminosity-noclip-2);}.cls-23{filter:url(#luminosity-noclip);}</style><filter id="luminosity-noclip" x="173.94" y="-8442" width="262.34" height="32766" filterUnits="userSpaceOnUse" color-interpolation-filters="sRGB"><feFlood flood-color="#fff" result="bg"/><feBlend in="SourceGraphic" in2="bg"/></filter><mask id="mask" x="173.94" y="-8442" width="262.34" height="32766" maskUnits="userSpaceOnUse"><g class="cls-23"/></mask><radialGradient id="radial-gradient" cx="242.25" cy="180.67" r="224.79" gradientUnits="userSpaceOnUse"><stop offset="0" stop-color="#262626"/><stop offset="0.26" stop-color="#191919"/><stop offset="0.66" stop-color="#0a0a0a"/><stop offset="1" stop-color="#050505"/></radialGradient><filter id="luminosity-noclip-2" x="90.31" y="-8442" width="319.37" height="32766" filterUnits="userSpaceOnUse" color-interpolation-filters="sRGB"><feFlood flood-color="#fff" result="bg"/><feBlend in="SourceGraphic" in2="bg"/></filter><mask id="mask-2" x="90.31" y="-8442" width="319.37" height="32766" maskUnits="userSpaceOnUse"><g class="cls-22"/></mask><radialGradient id="radial-gradient-2" cx="137.05" cy="114.4" r="337.01" gradientUnits="userSpaceOnUse"><stop offset="0" stop-color="#fff"/><stop offset="0.07" stop-color="#e0e0e0"/><stop offset="0.21" stop-color="#a5a5a5"/><stop offset="0.36" stop-color="#737373"/><stop offset="0.5" stop-color="#494949"/><stop offset="0.64" stop-color="#292929"/><stop offset="0.77" stop-color="#131313"/><stop offset="0.89" stop-color="#050505"/><stop offset="1"/></radialGradient><clipPath id="clip-path" transform="translate(-90.31 -67.5)"><path class="cls-5" d="M250,67.5A159.69,159.69,0,0,0,90.31,227.19c0,84,75.7,152.08,159.69,152.08V432.5c96.72-47.17,159.69-125,159.69-205.31A159.69,159.69,0,0,0,250,67.5Z"/></clipPath><filter id="luminosity-noclip-3" x="173.94" y="181.56" width="262.34" height="250.94" filterUnits="userSpaceOnUse" color-interpolation-filters="sRGB"><feFlood flood-color="#fff" result="bg"/><feBlend in="SourceGraphic" in2="bg"/></filter><mask id="mask-3" x="83.62" y="114.06" width="262.34" height="250.94" maskUnits="userSpaceOnUse"><g class="cls-21"><g transform="translate(-90.31 -67.5)"><g class="cls-1"><polygon class="cls-2" points="436.28 432.5 436.28 284.22 333.63 181.56 265.19 181.56 265.19 204.38 242.38 181.56 173.94 250 356.44 432.5 436.28 432.5"/></g></g></g></mask><radialGradient id="radial-gradient-3" cx="151.94" cy="113.17" r="224.79" gradientUnits="userSpaceOnUse"><stop offset="0" stop-color="#263238"/><stop offset="1" stop-color="#263238"/></radialGradient><filter id="luminosity-noclip-4" x="90.31" y="67.5" width="319.37" height="365" filterUnits="userSpaceOnUse" color-interpolation-filters="sRGB"><feFlood flood-color="#fff" result="bg"/><feBlend in="SourceGraphic" in2="bg"/></filter><mask id="mask-4" x="0" y="0" width="319.37" height="365" maskUnits="userSpaceOnUse"><g class="cls-20"><g transform="translate(-90.31 -67.5)"><g class="cls-3"><path class="cls-4" d="M250,67.5A159.69,159.69,0,0,0,90.31,227.19c0,84,75.7,152.08,159.69,152.08V432.5c96.72-47.17,159.69-125,159.69-205.31A159.69,159.69,0,0,0,250,67.5Z"/></g></g></g></mask><radialGradient id="radial-gradient-4" cx="137.05" cy="114.4" r="337.01" gradientUnits="userSpaceOnUse"><stop offset="0" stop-color="#fff"/><stop offset="1" stop-color="#fff"/></radialGradient></defs><g class="cls-6"><g id="Layer_1" data-name="Layer 1"><path class="cls-7" d="M250,67.5A159.69,159.69,0,0,0,90.31,227.19c0,84,75.7,152.08,159.69,152.08V432.5c96.72-47.17,159.69-125,159.69-205.31A159.69,159.69,0,0,0,250,67.5Z" transform="translate(-90.31 -67.5)"/><path class="cls-8" d="M250,69.4A159.66,159.66,0,0,1,409.66,228.15c0-.32,0-.64,0-1a159.69,159.69,0,0,0-319.38,0c0,.3,0,.6,0,.9A159.67,159.67,0,0,1,250,69.4Z" transform="translate(-90.31 -67.5)"/><g class="cls-9"><path class="cls-10" d="M250,377.37c-83.69,0-159.12-67.61-159.66-151.18,0,.33,0,.66,0,1,0,84,75.7,152.08,159.69,152.08ZM409.66,226.25c-.5,80-63.33,157.37-159.66,204.35v1.9c96.72-47.17,159.69-125,159.69-205.31C409.69,226.87,409.67,226.57,409.66,226.25Z" transform="translate(-90.31 -67.5)"/></g><g class="cls-11"><g class="cls-12"><polygon class="cls-13" points="345.97 365 345.97 216.72 243.31 114.06 174.88 114.06 174.88 136.88 152.06 114.06 83.63 182.5 266.13 365 345.97 365"/></g></g><path class="cls-14" d="M174,250h38v38c16.8,0,30.42-17,30.42-38V181.56H174Zm91.25-68.44V250h38v38c16.8,0,30.42-17,30.42-38V181.56Z" transform="translate(-90.31 -67.5)"/><path class="cls-15" d="M265.21,181.56v1.9h68.44v-1.9ZM174,183.46H242.4v-1.9H174Z" transform="translate(-90.31 -67.5)"/><g class="cls-16"><path class="cls-10" d="M212,250H174l1.88,1.9H212Zm0,38v1.9c16.8,0,30.42-17,30.42-38V250C242.4,271,228.78,288,212,288Zm91.25-38h-38v1.9h38Zm0,38v1.9c16.8,0,30.42-17,30.42-38V250C333.65,271,320,288,303.23,288Z" transform="translate(-90.31 -67.5)"/></g><g class="cls-17"><path class="cls-10" d="M212,250H174l1.88,1.9H212Zm0,38v1.9c16.8,0,30.42-17,30.42-38V250C242.4,271,228.78,288,212,288Zm91.25-38h-38v1.9h38Zm0,38v1.9c16.8,0,30.42-17,30.42-38V250C333.65,271,320,288,303.23,288Z" transform="translate(-90.31 -67.5)"/></g><g class="cls-18"><path class="cls-19" d="M250,67.5A159.69,159.69,0,0,0,90.31,227.19c0,84,75.7,152.08,159.69,152.08V432.5c96.72-47.17,159.69-125,159.69-205.31A159.69,159.69,0,0,0,250,67.5Z" transform="translate(-90.31 -67.5)"/></g></g></g></svg>