<?xml version="1.0" encoding="UTF-8" standalone="no"?>
<!DOCTYPE svg PUBLIC "-//W3C//DTD SVG 1.1//EN" "http://www.w3.org/Graphics/SVG/1.1/DTD/svg11.dtd">
<svg version="1.1" xmlns="http://www.w3.org/2000/svg" xmlns:xlink="http://www.w3.org/1999/xlink" preserveAspectRatio="xMidYMid meet" viewBox="0 0 640 640" width="640" height="640"><defs><path d="M505.51 213.37C506.74 208.63 507.79 203.9 508.67 199.34C524.27 123.59 514.1 62.57 479.21 42.59C445.9 23.3 391.19 43.46 336.13 91.33C330.87 95.89 325.44 100.8 320.18 105.88C316.67 102.55 313.16 99.22 309.65 96.07C251.79 44.69 193.93 23.12 159.21 43.29C125.9 62.57 115.9 119.91 129.93 191.63C131.33 198.64 132.91 205.65 134.66 212.84C126.42 215.12 118.53 217.58 110.99 220.21C43.31 243.88 0 280.88 0 319.28C0 358.9 46.47 398.71 116.95 422.9C122.56 424.83 128.35 426.59 134.31 428.34C132.38 436.05 130.63 443.77 129.23 451.13C115.9 521.62 126.25 577.56 159.56 596.84C193.93 616.66 251.62 596.32 307.73 547.22C312.11 543.36 316.67 539.16 321.05 534.95C326.84 540.56 332.62 545.82 338.41 550.73C392.77 597.54 446.6 616.48 479.74 597.19C514.1 577.38 525.15 517.24 510.77 443.94C509.72 438.33 508.32 432.72 506.92 426.76C510.95 425.53 514.98 424.31 518.84 423.08C592.13 398.71 640 359.43 640 319.28C639.82 280.88 595.11 243.7 526.03 219.86C519.36 217.58 512.53 215.47 505.51 213.37ZM499.38 400.63C491.31 375.03 480.26 347.68 466.94 319.63C479.74 292.1 490.26 265.27 498.15 239.67C504.64 241.6 511.12 243.53 517.26 245.63C576.53 265.97 612.65 296.13 612.65 319.45C612.47 344.17 573.55 376.26 510.07 397.3C506.56 398.53 503.06 399.58 499.38 400.63ZM486.93 533.9C483.07 554.41 475.53 568.09 465.88 573.7C445.72 585.45 402.59 570.19 356.12 530.21C350.86 525.65 345.42 520.74 339.99 515.48C358.05 495.85 376.11 472.88 393.64 447.45C424.5 444.65 453.79 440.26 480.26 434.13C481.67 439.21 482.89 444.3 483.77 449.38C490.26 481.82 491.13 510.93 486.93 533.9ZM173.06 573.35C152.9 561.77 144.48 516.71 155.88 456.39C157.11 449.56 158.68 442.37 160.61 435.18C186.92 440.96 215.85 445.17 246.88 447.63C264.59 472.53 283.18 495.5 301.76 515.48C297.73 519.34 293.7 523.2 289.49 526.71C264.77 548.45 239.87 563.88 217.95 571.59C198.31 578.61 182.53 578.78 173.06 573.35ZM51.02 357.5C35.07 343.82 27.18 330.5 27.18 319.45C27.18 296.13 61.9 266.5 119.93 246.16C126.95 243.7 134.31 241.42 142.03 239.14C150.09 265.27 160.61 292.45 173.24 319.98C160.44 347.86 149.74 375.56 141.68 402.04C136.07 400.46 130.81 398.88 125.72 397.13C94.51 386.43 68.73 372.58 51.02 357.5ZM172.71 67.13C194.1 54.68 241.45 72.39 291.42 116.76C294.58 119.56 297.73 122.54 301.06 125.7C282.48 145.69 264.07 168.48 246.53 193.2C216.37 196.01 187.62 200.39 161.14 206.53C159.39 199.52 157.98 192.85 156.58 186.54C144.48 125 152.55 78.71 172.71 67.13ZM413.28 222.49C433.62 225.12 453.26 228.45 471.67 232.66C466.24 250.37 459.22 268.78 451.16 287.71C445.37 277.02 439.23 265.8 432.75 254.57C426.43 243.7 419.95 233.01 413.28 222.49ZM357.87 190.4C345.42 189.87 332.62 189.52 319.82 189.52C307.2 189.52 294.58 189.87 282.13 190.4C294.58 174.09 307.38 158.84 320.18 144.99C332.8 158.66 345.42 173.92 357.87 190.4ZM188.84 288.07C180.95 269.13 174.12 250.54 168.5 232.66C186.74 228.62 206.2 225.29 226.54 222.66C219.7 233.01 213.22 243.88 206.9 254.93C200.59 265.97 194.63 277.02 188.84 288.07ZM168.15 408.7C173.76 390.47 180.78 371.53 188.84 352.24C194.63 363.29 200.59 374.33 206.9 385.38C213.39 396.6 220.05 407.47 227.07 418.17C206.03 415.89 186.39 412.73 168.15 408.7ZM282.3 449.73C294.58 450.26 307.02 450.43 319.82 450.43C332.8 450.43 345.78 450.08 358.4 449.56C345.95 466.56 333.33 481.99 320.88 495.85C307.9 481.82 294.93 466.39 282.3 449.73ZM472.9 407.47C454.31 411.68 434.32 415.19 413.28 417.64C419.95 407.12 426.43 396.25 432.92 385.03C439.41 373.81 445.55 362.59 451.33 351.19C459.92 370.65 467.11 389.59 472.9 407.47ZM378.39 421.15C359.45 422.55 339.81 423.25 319.82 423.25C299.84 423.25 280.55 422.55 261.96 421.5C251.09 405.72 240.57 389.06 230.75 371.88C220.76 354.7 211.64 337.51 203.4 320.33C211.64 303.14 220.76 285.79 230.58 268.78C240.39 251.59 250.92 235.11 261.61 219.33C280.72 217.93 300.19 217.23 319.82 217.23C339.64 217.23 359.1 217.93 378.21 219.51C388.73 235.11 399.08 251.59 409.07 268.78C419.07 286.14 428.36 303.32 436.6 320.15C428.36 336.81 419.07 354.17 409.07 371.53C399.08 388.89 388.73 405.37 378.39 421.15ZM481.84 193.91C480.96 198.11 480.09 202.32 479.04 206.71C452.56 200.57 423.63 196.01 393.47 193.2C375.93 168.13 357.7 145.34 339.29 125.7C344.2 120.96 349.11 116.4 354.02 112.2C401.18 70.82 445.37 54.68 465.53 66.26C486.93 78.53 495.34 128.5 481.84 193.91ZM376.99 319.45C376.99 351.01 351.39 376.61 319.82 376.61C288.26 376.61 262.66 351.01 262.66 319.45C262.66 287.89 288.26 262.29 319.82 262.29C351.39 262.29 376.99 287.89 376.99 319.45Z" id="eulp5Zk1L"></path></defs><g><g><g><use xlink:href="#eulp5Zk1L" opacity="1" fill="#00d8ff" fill-opacity="1"></use><g><use xlink:href="#eulp5Zk1L" opacity="1" fill-opacity="0" stroke="#000000" stroke-width="1" stroke-opacity="0"></use></g></g></g></g></svg>