<?xml version="1.0" encoding="UTF-8" standalone="no"?>
<!DOCTYPE svg PUBLIC "-//W3C//DTD SVG 1.1//EN" "http://www.w3.org/Graphics/SVG/1.1/DTD/svg11.dtd">
<svg version="1.1" xmlns="http://www.w3.org/2000/svg" xmlns:xlink="http://www.w3.org/1999/xlink" preserveAspectRatio="xMidYMid meet" viewBox="0 0 640 640" width="640" height="640"><defs><path d="M492.96 369.08C486.96 357.2 480.96 346.83 479.96 339.08C478.83 330.08 477.46 324.58 478.83 313.82C480.2 303.07 486.46 287.82 486.46 286.57C486.34 285.44 485.08 279.94 472.21 279.82C459.33 279.7 448.2 282.32 446.95 285.7C444.72 291.94 442.92 298.33 441.57 304.83C439.32 316.59 415.82 358.22 402.44 380.1C398.06 371.6 394.31 364.1 393.56 358.1C392.43 349.1 391.06 343.6 392.43 332.85C393.8 322.1 400.06 306.84 400.06 305.59C399.94 304.46 398.68 298.96 385.81 298.84C372.94 298.72 361.81 301.34 360.56 304.72C359.31 308.1 357.93 316.11 355.18 323.86C352.55 331.61 321.3 401.12 313.18 419.24C309.94 426.55 306.48 433.77 302.8 440.87C300.17 445.87 302.68 441.25 302.43 441.75C302.2 442.19 301.03 444.4 298.93 448.38C298.93 448.45 298.93 448.49 298.93 448.5C297.18 451.63 295.3 454.63 294.43 454.63C293.81 454.63 292.55 446.25 294.68 434.75C299.31 410.62 310.56 372.99 310.43 371.62C310.43 371 312.56 364.37 303.18 360.99C294.05 357.61 290.8 363.24 290.05 363.24C289.3 363.24 288.67 365.24 288.67 365.24C288.67 365.24 298.8 322.86 269.29 322.86C250.79 322.86 225.29 342.99 212.66 361.36C208.41 363.68 187.15 375.31 148.9 396.24C148.07 395.34 147.61 394.84 147.52 394.74C111.78 356.58 45.65 329.58 48.51 278.33C49.51 259.7 56.01 210.57 175.52 151.07C273.4 102.32 351.79 115.69 365.52 145.44C384.9 187.94 323.64 266.94 221.88 278.44C183.13 282.82 162.75 267.81 157.62 262.19C152.24 256.31 151.49 256.06 149.49 257.19C146.24 258.94 148.24 264.19 149.49 267.32C152.49 275.2 164.99 289.2 186.24 296.2C204.87 302.33 250.37 305.7 305.38 284.45C367.01 260.57 415.04 194.32 401.01 138.95C386.41 82.47 293.01 63.97 204.53 95.35C152.01 113.97 95 143.31 54 181.69C5.15 227.19 -2.6 266.95 0.64 283.45C12.02 342.34 93.14 380.72 125.64 409.1C125.19 409.35 121.59 411.35 121.14 411.6C104.89 419.6 43.01 451.98 27.51 486.23C10.01 524.98 30.26 552.86 43.76 556.61C85.51 568.24 128.26 547.36 151.4 512.98C174.4 478.6 171.65 433.98 161.03 413.6C161 413.55 160.87 413.3 160.65 412.85C168.3 408.35 172.55 405.85 173.4 405.35C181.65 400.47 189.78 395.97 196.9 392.1C192.9 402.98 190.02 415.85 188.52 434.6C186.77 456.6 195.77 485.1 207.65 496.36C212.9 501.24 219.15 501.36 223.03 501.36C236.78 501.36 243.03 489.98 249.91 476.36C258.41 459.73 265.91 440.48 265.91 440.48C265.91 440.48 256.53 492.61 282.16 492.61C291.54 492.61 300.91 480.48 305.16 474.23C305.16 474.24 305.16 474.34 305.16 474.35C305.16 474.35 305.41 473.97 305.91 473.1C306.91 471.6 307.41 470.72 307.41 470.72C307.41 470.69 307.41 470.49 307.41 470.47C311.16 463.97 319.54 449.09 332.04 424.47C348.17 392.72 363.67 352.97 363.67 352.97C363.67 352.97 365.17 362.72 369.8 378.72C372.55 388.22 378.55 398.6 383.18 408.72C382.78 409.27 380.78 412.02 377.18 416.97C377.25 417.05 377.29 417.09 377.3 417.1C374.1 421.34 370.8 425.5 367.42 429.6C354.67 444.85 339.42 462.23 337.42 467.23C335.04 473.11 335.54 477.48 340.17 480.98C343.55 483.48 349.55 483.98 355.92 483.48C367.42 482.73 375.42 479.85 379.42 478.1C386.64 475.52 393.45 471.94 399.67 467.47C412.17 458.22 419.8 445.09 419.05 427.59C418.67 417.96 415.55 408.46 411.67 399.46C412.01 398.96 414.72 394.96 415.05 394.46C434.8 365.58 450.05 333.83 450.05 333.83C450.05 333.83 451.55 343.58 456.18 359.58C458.56 367.71 463.31 376.58 467.57 385.33C449.06 400.46 437.43 417.96 433.43 429.46C426.05 450.71 431.8 460.34 442.68 462.59C447.56 463.59 454.56 461.34 459.81 459.09C467.57 456.54 474.87 452.78 481.45 447.96C493.95 438.71 505.95 425.83 505.33 408.46C504.95 400.46 502.83 392.58 499.95 385.08C515.7 378.58 536.08 374.83 561.95 377.95C617.58 384.45 628.58 419.2 626.45 433.7C624.32 448.2 612.7 456.2 608.82 458.7C604.94 461.08 603.69 461.95 604.07 463.7C604.57 466.33 606.32 466.2 609.7 465.7C614.33 464.95 638.95 453.82 639.95 427.07C641.45 392.69 608.82 355.19 550.95 355.57C528.58 355.71 509.21 361.08 492.96 369.08ZM66.75 521.48C54.87 514.6 59.5 484.98 82.13 463.6C95.88 450.6 113.76 438.6 125.51 431.22C126.65 430.53 135.76 425.03 136.89 424.34C137.64 423.84 138.14 423.59 138.14 423.59C139.02 423.09 140.02 422.46 141.02 421.84C149.41 452.34 141.4 479.09 122.02 500.22C103.62 520.36 77.75 527.98 66.75 521.48ZM228.41 462.35C221.41 460.47 217.16 430.1 227.03 400.09C232.03 384.96 242.66 366.96 248.91 359.96C259.04 348.71 270.04 344.96 272.79 349.58C276.04 355.58 260.41 399.08 256.41 408.84C250.03 424.48 236.53 464.6 228.41 462.35ZM360.91 463.48C360.03 462.98 362.04 461.1 362.04 461.1C362.04 461.1 375.92 446.22 381.42 439.35C382.15 438.42 385.77 433.8 392.3 425.47C392.3 426.37 392.3 426.87 392.3 426.97C392.3 444.97 375.05 456.97 367.3 461.85C364.54 463.23 362.04 464.23 360.91 463.48ZM457.79 421.72C460.42 415.97 466.43 406.34 476.8 397.22C478.05 400.97 478.8 404.6 478.68 407.97C478.55 430.47 462.54 438.85 452.79 442.35C450.79 440.85 451.04 436.22 457.79 421.72Z" id="a3KfIfmXSW"></path></defs><g><g><g><use xlink:href="#a3KfIfmXSW" opacity="1" fill="#cf649a" fill-opacity="1"></use><g><use xlink:href="#a3KfIfmXSW" opacity="1" fill-opacity="0" stroke="#000000" stroke-width="1" stroke-opacity="0"></use></g></g></g></g></svg>