<?xml version="1.0" encoding="utf-8"?><svg version="1.1" id="Layer_1" xmlns="http://www.w3.org/2000/svg" xmlns:xlink="http://www.w3.org/1999/xlink" x="0px" y="0px" viewBox="0 0 512 512" style="enable-background:new 0 0 512 512" xml:space="preserve"><style type="text/css">.st0{fill:url(#SVGID_1_);} .st1{fill:url(#SVGID_2_);} .st2{opacity:0.05;fill-rule:evenodd;clip-rule:evenodd;enable-background:new ;} .st3{opacity:0.1;fill-rule:evenodd;clip-rule:evenodd;enable-background:new ;} .st4{fill:url(#SVGID_3_);} .st5{fill-rule:evenodd;clip-rule:evenodd;fill:#FFFFFF;}</style><g transform="translate(-381.7262001,-337.1428572)"><linearGradient id="SVGID_1_" gradientUnits="userSpaceOnUse" x1="168.9217" y1="871.3207" x2="170.3118" y2="862.545" gradientTransform="matrix(33.3333 0 0 -33.3333 -5119.6748 29384.5703)"><stop offset="0.012" style="stop-color:#00B7F0"/><stop offset="0.339" style="stop-color:#009DE5"/><stop offset="0.755" style="stop-color:#0082D9"/><stop offset="1" style="stop-color:#0078D4"/></linearGradient><path class="st0" d="M682.76,486.81c0,81.77-66.51,148.05-148.54,148.05l0,0c-82.04,0-148.54-66.29-148.54-148.05l0,0 c0-81.77,66.51-148.05,148.54-148.05c0,0,0,0,0,0C616.26,338.76,682.76,405.04,682.76,486.81L682.76,486.81"/><linearGradient id="SVGID_2_" gradientUnits="userSpaceOnUse" x1="171.9677" y1="858.327" x2="179.6839" y2="862.7817" gradientTransform="matrix(33.3333 0 0 -33.3333 -5119.6748 29384.5703)"><stop offset="0" style="stop-color:#0078D4"/><stop offset="0.37" style="stop-color:#007AD5"/><stop offset="0.573" style="stop-color:#0082D9"/><stop offset="0.735" style="stop-color:#0090DF"/><stop offset="0.875" style="stop-color:#00A3E7"/><stop offset="1" style="stop-color:#00BCF2"/></linearGradient><path class="st1" d="M889.78,699.43c0,81.8-66.53,148.1-148.6,148.1s-148.6-66.31-148.6-148.1s66.53-148.1,148.6-148.1 S889.78,617.63,889.78,699.43L889.78,699.43"/><path class="st2" d="M386.21,499.48c6.74,81.75,78.48,142.56,160.23,135.82c81.75-6.74,142.56-78.48,135.82-160.23 c-5.78-70.03-59.84-126.43-129.56-135.17C476.13,365.51,415.05,424.06,386.21,499.48L386.21,499.48z"/><path class="st2" d="M889.39,688.79c-5.61-81.87-76.52-143.68-158.39-138.07s-143.68,76.52-138.07,158.39 c4.99,72.81,62.11,131.21,134.79,137.81c74.44-26.51,133.53-84.3,161.67-158.14V688.79z"/><path class="st3" d="M393.17,533.33c25.48,77.94,109.32,120.47,187.26,94.99C658.37,602.84,700.9,519,675.42,441.06 c-14.01-42.86-46.74-77.03-88.96-92.88C491.94,367.88,416.92,439.74,393.17,533.33L393.17,533.33z"/><path class="st3" d="M882.64,653.99c-24.88-78.16-108.42-121.36-186.58-96.48S574.7,665.93,599.58,744.1 c14.25,44.76,48.83,80.14,93.25,95.41C786.11,818.57,859.58,746.77,882.64,653.99L882.64,653.99z"/><path class="st3" d="M398.63,547.37c33.26,74.93,120.96,108.72,195.9,75.47s108.72-120.96,75.47-195.9 c-14.03-31.62-38.67-57.35-69.65-72.73C499.26,369.94,418.72,447.06,398.63,547.37z"/><path class="st3" d="M877.16,639.66c-32.81-75.16-120.33-109.5-195.5-76.69c-75.16,32.81-109.5,120.33-76.69,195.5 c14.5,33.23,40.66,60.01,73.55,75.28C778.69,816.72,857.82,739.41,877.16,639.66L877.16,639.66z"/><linearGradient id="SVGID_3_" gradientUnits="userSpaceOnUse" x1="169.9686" y1="868.4802" x2="177.0105" y2="856.2834" gradientTransform="matrix(33.3333 0 0 -33.3333 -5119.6748 29384.5703)"><stop offset="0" style="stop-color:#00B7F0"/><stop offset="1" style="stop-color:#007CC1"/></linearGradient><path class="st4" d="M873.02,594.25c0,129.51-105.34,234.49-235.27,234.49l0,0c-129.94,0-235.27-104.99-235.27-234.49c0,0,0,0,0,0 c0-129.51,105.34-234.49,235.27-234.49c0,0,0,0,0,0C767.69,359.75,873.02,464.74,873.02,594.25L873.02,594.25"/><path class="st5" d="M571.59,586.1c-9.51-6.26-17.44-14.63-23.18-24.45c-5.54-10.38-8.28-22.03-7.94-33.8 c-0.42-14.93,4.68-29.49,14.31-40.91c10.02-11.46,22.89-20.06,37.31-24.93c15.68-5.54,32.21-8.32,48.84-8.23 c10.88-0.1,21.75,0.73,32.49,2.49c7.69,1.19,15.24,3.14,22.54,5.82c6.7,2.27,12.76,6.13,17.64,11.26c3.6,4.22,5.53,9.6,5.44,15.14 c0.26,5.81-1.8,11.49-5.73,15.79c-3.72,3.96-8.96,6.15-14.4,6c-3.7-0.03-7.35-0.85-10.7-2.41c-8.27-3.7-16.79-6.82-25.49-9.33 c-8.01-2.11-16.27-3.14-24.56-3.05c-10.8-0.4-21.48,2.34-30.76,7.87c-7.98,4.85-12.68,13.65-12.28,22.98 c-0.06,6.01,2.23,11.81,6.38,16.16c4.93,5.11,10.75,9.28,17.18,12.3c7.2,3.57,17.94,8.31,32.22,14.21c1.58,0.5,3.12,1.12,4.61,1.85 c13.93,5.51,27.29,12.38,39.89,20.5c9.95,6.48,18.33,15.09,24.56,25.2c6.13,10.63,9.2,22.74,8.87,35 c0.51,15.01-3.79,29.8-12.28,42.19c-8.65,11.73-20.61,20.61-34.34,25.49c-16.55,5.91-34.05,8.77-51.62,8.41 c-24.15,0.85-48.19-3.7-70.36-13.31c-5.67-2.52-10.64-6.39-14.48-11.26c-3.19-4.46-4.85-9.84-4.71-15.33 c-0.32-5.86,1.94-11.56,6.19-15.6c4.4-3.85,10.11-5.87,15.96-5.63c6.51,0.09,12.91,1.73,18.65,4.8c7.15,3.57,12.78,6.25,16.91,8.04 c4.71,1.97,9.59,3.52,14.58,4.61c6.15,1.35,12.44,2,18.74,1.93c11.14,0.8,22.23-2.16,31.49-8.39c7.04-5.51,10.99-14.07,10.62-23 c0.01-6.24-2.37-12.25-6.65-16.79c-5.66-5.84-12.28-10.66-19.57-14.25c-8.63-4.55-20.76-10.08-36.39-16.62 C597.58,601.31,584.19,594.35,571.59,586.1"/></g></svg>