<?xml version="1.0" encoding="UTF-8" standalone="no"?>
<!DOCTYPE svg PUBLIC "-//W3C//DTD SVG 1.1//EN" "http://www.w3.org/Graphics/SVG/1.1/DTD/svg11.dtd">
<svg version="1.1" xmlns="http://www.w3.org/2000/svg" xmlns:xlink="http://www.w3.org/1999/xlink" preserveAspectRatio="xMidYMid meet" viewBox="0 0 640 640" width="640" height="640"><defs><path d="M201.27 580.02C442.78 580.02 574.87 379.93 574.87 206.41C574.87 200.73 574.87 195.07 574.49 189.41C600.19 170.83 622.37 147.83 640 121.47C616.04 132.09 590.61 139.05 564.58 142.13C591.99 125.72 612.51 99.91 622.31 69.51C596.53 84.8 568.33 95.58 538.93 101.38C498.23 58.1 433.56 47.51 381.18 75.54C328.8 103.57 301.73 163.26 315.16 221.13C209.59 215.84 111.22 165.97 44.55 83.94C9.7 143.94 27.5 220.69 85.2 259.22C64.3 258.6 43.86 252.97 25.6 242.79C25.6 242.95 25.6 244.28 25.6 244.45C25.62 306.96 69.68 360.79 130.95 373.17C111.61 378.44 91.33 379.21 71.66 375.42C88.86 428.91 138.16 465.55 194.33 466.61C147.83 503.15 90.4 522.99 31.26 522.93C20.81 522.91 10.37 522.28 0 521.03C60.05 559.57 129.92 580.03 201.27 579.91" id="dLVnl0iS"></path></defs><g><g><g><use xlink:href="#dLVnl0iS" opacity="1" fill="#1da1f2" fill-opacity="1"></use><g><use xlink:href="#dLVnl0iS" opacity="1" fill-opacity="0" stroke="#000000" stroke-width="1" stroke-opacity="0"></use></g></g></g></g></svg>