<?xml version="1.0" encoding="UTF-8" standalone="no"?>
<!DOCTYPE svg PUBLIC "-//W3C//DTD SVG 1.1//EN" "http://www.w3.org/Graphics/SVG/1.1/DTD/svg11.dtd">
<svg version="1.1" xmlns="http://www.w3.org/2000/svg" xmlns:xlink="http://www.w3.org/1999/xlink" preserveAspectRatio="xMidYMid meet" viewBox="0 0 640 640" width="640" height="640"><defs><path d="M570.04 108.01C520.07 94.51 320 94.51 320 94.51C320 94.51 119.93 94.51 69.96 108.01C42.43 115.38 20.69 137.29 13.33 165C0 215.15 0 320 0 320C0 320 0 424.85 13.33 475C20.69 502.71 42.43 524.62 69.96 531.99C119.93 545.49 320 545.49 320 545.49C320 545.49 520.07 545.49 570.04 531.99C597.57 524.62 619.31 502.71 626.67 475C640 424.85 640 320 640 320C640 320 640 215.15 626.67 165C619.31 137.29 597.57 115.38 570.04 108.01Z" id="aTnKIuNbM"></path><path d="M421.87 320L254.6 224.79L254.6 415.21L421.87 320Z" id="b13KmGG0gI"></path></defs><g><g><g><use xlink:href="#aTnKIuNbM" opacity="1" fill="#ff0000" fill-opacity="1"></use><g><use xlink:href="#aTnKIuNbM" opacity="1" fill-opacity="0" stroke="#000000" stroke-width="1" stroke-opacity="0"></use></g></g><g><use xlink:href="#b13KmGG0gI" opacity="1" fill="#ffffff" fill-opacity="1"></use><g><use xlink:href="#b13KmGG0gI" opacity="1" fill-opacity="0" stroke="#000000" stroke-width="1" stroke-opacity="0"></use></g></g></g></g></svg>